<svg viewBox="0 0 64 64" xmlns="http://www.w3.org/2000/svg" xml:space="preserve" style="fill-rule:evenodd;clip-rule:evenodd;stroke-linecap:round;stroke-linejoin:round;stroke-miterlimit:2"><path style="fill:none" d="M0 0h64v64H0z"/><path d="m44.151 39.5 12.543 5.913L32 57.054 7.306 45.413l16.152-7.614M32 44.102h7.857M37.12 44.572 35.398 48M35.702 20.312a3.7 3.7 0 0 0-3.7-3.699h-.004a3.699 3.699 0 0 0-3.7 3.699V21h7.404v-.688zM28.298 27h7.404M28.298 24.635l.609-.608a.857.857 0 0 1 1.215.001.861.861 0 0 0 1.215 0l.028-.028a.897.897 0 0 1 1.27 0l.028.028a.857.857 0 0 0 1.215 0l.001-.001a.857.857 0 0 1 1.214 0l.609.608" style="fill:none;stroke:#444f58;stroke-width:2px"/><path d="M32 44.041S16.612 36.966 16.612 22c0-8.493 6.895-15.388 15.388-15.388S47.388 13.507 47.388 22C47.388 37.038 32 44.041 32 44.041z" style="fill:none;stroke:#444f58;stroke-width:2px"/><path d="M40.876 16a10.769 10.769 0 0 1 1.942 6.182C42.818 28.153 37.97 33 32 33s-10.818-4.847-10.818-10.818c0-4.167 2.362-7.786 5.818-9.593" style="fill:none;stroke:#444f58;stroke-width:2px"/></svg>