<svg xmlns="http://www.w3.org/2000/svg" xmlns:xlink="http://www.w3.org/1999/xlink" width="500" zoomAndPan="magnify" viewBox="0 0 375 374.999991" height="500" preserveAspectRatio="xMidYMid meet" version="1.0"><defs><g/></defs><g fill="#0057ff" fill-opacity="0.302"><g transform="translate(149.345664, 285.456255)"><g><path d="M 73.734375 -59.609375 L 108.25 -76.875 L 108.25 -29.8125 C 108.25 -21.4375 105.476562 -14.375 99.9375 -8.625 C 94.394531 -2.875 87.753906 0 80.015625 0 L 40.796875 0 C 33.054688 0 26.410156 -2.925781 20.859375 -8.78125 C 15.316406 -14.644531 12.546875 -21.65625 12.546875 -29.8125 L 12.546875 -188.265625 C 12.546875 -196.628906 15.316406 -203.6875 20.859375 -209.4375 C 26.410156 -215.1875 33.054688 -218.0625 40.796875 -218.0625 L 80.015625 -218.0625 C 87.753906 -218.0625 94.394531 -215.1875 99.9375 -209.4375 C 105.476562 -203.6875 108.25 -196.628906 108.25 -188.265625 L 108.25 -169.4375 L 73.734375 -152.171875 L 73.734375 -185.125 L 47.0625 -185.125 L 47.0625 -32.953125 L 73.734375 -32.953125 Z M 73.734375 -59.609375 "/></g></g></g><g fill="#0057ff" fill-opacity="0.502"><g transform="translate(139.008767, 277.666842)"><g><path d="M 73.734375 -59.609375 L 108.25 -76.875 L 108.25 -29.8125 C 108.25 -21.4375 105.476562 -14.375 99.9375 -8.625 C 94.394531 -2.875 87.753906 0 80.015625 0 L 40.796875 0 C 33.054688 0 26.410156 -2.925781 20.859375 -8.78125 C 15.316406 -14.644531 12.546875 -21.65625 12.546875 -29.8125 L 12.546875 -188.265625 C 12.546875 -196.628906 15.316406 -203.6875 20.859375 -209.4375 C 26.410156 -215.1875 33.054688 -218.0625 40.796875 -218.0625 L 80.015625 -218.0625 C 87.753906 -218.0625 94.394531 -215.1875 99.9375 -209.4375 C 105.476562 -203.6875 108.25 -196.628906 108.25 -188.265625 L 108.25 -169.4375 L 73.734375 -152.171875 L 73.734375 -185.125 L 47.0625 -185.125 L 47.0625 -32.953125 L 73.734375 -32.953125 Z M 73.734375 -59.609375 "/></g></g></g><g fill="#004aad" fill-opacity="1"><g transform="translate(128.671871, 269.877433)"><g><path d="M 73.734375 -59.609375 L 108.25 -76.875 L 108.25 -29.8125 C 108.25 -21.4375 105.476562 -14.375 99.9375 -8.625 C 94.394531 -2.875 87.753906 0 80.015625 0 L 40.796875 0 C 33.054688 0 26.410156 -2.925781 20.859375 -8.78125 C 15.316406 -14.644531 12.546875 -21.65625 12.546875 -29.8125 L 12.546875 -188.265625 C 12.546875 -196.628906 15.316406 -203.6875 20.859375 -209.4375 C 26.410156 -215.1875 33.054688 -218.0625 40.796875 -218.0625 L 80.015625 -218.0625 C 87.753906 -218.0625 94.394531 -215.1875 99.9375 -209.4375 C 105.476562 -203.6875 108.25 -196.628906 108.25 -188.265625 L 108.25 -169.4375 L 73.734375 -152.171875 L 73.734375 -185.125 L 47.0625 -185.125 L 47.0625 -32.953125 L 73.734375 -32.953125 Z M 73.734375 -59.609375 "/></g></g></g></svg>