<svg xmlns="http://www.w3.org/2000/svg" xmlns:xlink="http://www.w3.org/1999/xlink" width="500" zoomAndPan="magnify" viewBox="0 0 375 374.999991" height="500" preserveAspectRatio="xMidYMid meet" version="1.0"><defs><g/></defs><g fill="#3b82f6" fill-opacity="1"><g transform="translate(105.503904, 205.876803)"><g><path d="M 19.796875 -20.359375 C 20.328125 -20.359375 20.875 -20.117188 21.4375 -19.640625 C 22 -19.160156 22.28125 -18.425781 22.28125 -17.4375 C 22.28125 -16.445312 21.929688 -15.160156 21.234375 -13.578125 C 20.546875 -12.003906 19.59375 -10.398438 18.375 -8.765625 C 17.164062 -7.140625 15.832031 -5.609375 14.375 -4.171875 C 12.925781 -2.742188 11.359375 -1.570312 9.671875 -0.65625 C 7.992188 0.257812 6.46875 0.71875 5.09375 0.71875 C 3.726562 0.71875 2.628906 0.285156 1.796875 -0.578125 C 0.972656 -1.441406 0.5625 -2.644531 0.5625 -4.1875 C 0.5625 -5.726562 0.9375 -7.429688 1.6875 -9.296875 C 2.445312 -11.171875 3.421875 -12.820312 4.609375 -14.25 C 5.804688 -15.6875 7.101562 -16.972656 8.5 -18.109375 C 11.394531 -20.441406 13.941406 -21.609375 16.140625 -21.609375 C 17.117188 -21.609375 17.859375 -21.367188 18.359375 -20.890625 C 18.535156 -20.734375 18.625 -20.59375 18.625 -20.46875 L 18.625 -20.3125 C 18.875 -20.34375 19.265625 -20.359375 19.796875 -20.359375 Z M 17.09375 -16.8125 L 16.90625 -16.8125 C 16.289062 -16.8125 15.984375 -17.265625 15.984375 -18.171875 C 14.679688 -17.742188 13.316406 -16.992188 11.890625 -15.921875 C 10.460938 -14.859375 9.1875 -13.59375 8.0625 -12.125 C 5.789062 -9.207031 4.632812 -6.742188 4.59375 -4.734375 C 4.59375 -3.734375 4.957031 -3.234375 5.6875 -3.234375 C 6.414062 -3.234375 7.5 -3.710938 8.9375 -4.671875 C 10.382812 -5.640625 11.816406 -7.015625 13.234375 -8.796875 C 14.648438 -10.578125 15.707031 -12.117188 16.40625 -13.421875 C 17.113281 -14.734375 17.46875 -15.625 17.46875 -16.09375 C 17.46875 -16.570312 17.34375 -16.8125 17.09375 -16.8125 Z M 17.09375 -16.8125 "/></g></g></g><g fill="#3b82f6" fill-opacity="1"><g transform="translate(125.541077, 205.876803)"><g><path d="M 15.609375 -4.109375 C 15.609375 -3.328125 16.140625 -2.9375 17.203125 -2.9375 C 17.773438 -2.9375 18.492188 -3.222656 19.359375 -3.796875 C 20.222656 -4.367188 21 -4.992188 21.6875 -5.671875 C 23.539062 -7.503906 24.59375 -8.421875 24.84375 -8.421875 C 25.3125 -8.421875 25.546875 -7.75 25.546875 -6.40625 C 25.546875 -5.070312 25.125 -4.15625 24.28125 -3.65625 C 21.738281 -1.363281 19.769531 0.03125 18.375 0.53125 C 17.59375 0.800781 16.726562 0.925781 15.78125 0.90625 C 14.84375 0.882812 13.910156 0.476562 12.984375 -0.3125 C 12.054688 -1.113281 11.59375 -2.085938 11.59375 -3.234375 C 11.59375 -4.390625 11.894531 -5.695312 12.5 -7.15625 C 13.101562 -8.613281 13.722656 -9.863281 14.359375 -10.90625 C 14.992188 -11.957031 15.773438 -13.171875 16.703125 -14.546875 C 17.628906 -15.929688 18.117188 -16.789062 18.171875 -17.125 L 18.109375 -17.1875 C 17.523438 -17.125 16.070312 -15.960938 13.75 -13.703125 C 11.425781 -11.441406 9.503906 -9.472656 7.984375 -7.796875 C 6.472656 -6.128906 4.664062 -3.894531 2.5625 -1.09375 C 1.976562 -0.332031 1.5 0.046875 1.125 0.046875 C 0.75 0.046875 0.25 -0.0703125 -0.375 -0.3125 C -1.007812 -0.550781 -1.398438 -0.722656 -1.546875 -0.828125 C -1.691406 -0.929688 -1.765625 -1.085938 -1.765625 -1.296875 C -1.765625 -1.515625 -1.703125 -1.78125 -1.578125 -2.09375 C -1.453125 -2.40625 -1.332031 -2.660156 -1.21875 -2.859375 C -1.101562 -3.066406 -0.910156 -3.382812 -0.640625 -3.8125 C -0.367188 -4.25 0.160156 -5.15625 0.953125 -6.53125 C 1.742188 -7.914062 2.957031 -9.976562 4.59375 -12.71875 C 6.226562 -15.457031 7.207031 -17.113281 7.53125 -17.6875 C 8.207031 -18.863281 8.757812 -19.71875 9.1875 -20.25 C 9.988281 -21.269531 11.34375 -21.78125 13.25 -21.78125 C 13.675781 -21.78125 13.890625 -21.507812 13.890625 -20.96875 C 13.890625 -20.132812 13.113281 -18.5625 11.5625 -16.25 L 10.453125 -14.5625 C 13.523438 -17.976562 16.125 -20.140625 18.25 -21.046875 C 19.28125 -21.492188 20.207031 -21.71875 21.03125 -21.71875 C 21.863281 -21.71875 22.523438 -21.492188 23.015625 -21.046875 C 23.503906 -20.609375 23.75 -20.113281 23.75 -19.5625 C 23.75 -19.019531 23.5625 -18.367188 23.1875 -17.609375 C 22.8125 -16.859375 22.429688 -16.179688 22.046875 -15.578125 C 21.671875 -14.984375 21.171875 -14.234375 20.546875 -13.328125 C 19.921875 -12.421875 19.582031 -11.925781 19.53125 -11.84375 C 19.476562 -11.769531 19.335938 -11.554688 19.109375 -11.203125 C 18.890625 -10.859375 18.726562 -10.601562 18.625 -10.4375 C 18.519531 -10.28125 18.34375 -10 18.09375 -9.59375 C 17.84375 -9.195312 17.640625 -8.863281 17.484375 -8.59375 C 17.335938 -8.332031 17.148438 -8.003906 16.921875 -7.609375 C 16.703125 -7.222656 16.523438 -6.882812 16.390625 -6.59375 C 16.253906 -6.3125 16.117188 -6.003906 15.984375 -5.671875 C 15.734375 -5.046875 15.609375 -4.523438 15.609375 -4.109375 Z M 15.609375 -4.109375 "/></g></g></g><g fill="#3b82f6" fill-opacity="1"><g transform="translate(146.914061, 205.876803)"><g><path d="M 15.609375 -4.109375 C 15.609375 -3.328125 16.140625 -2.9375 17.203125 -2.9375 C 17.773438 -2.9375 18.492188 -3.222656 19.359375 -3.796875 C 20.222656 -4.367188 21 -4.992188 21.6875 -5.671875 C 23.539062 -7.503906 24.59375 -8.421875 24.84375 -8.421875 C 25.3125 -8.421875 25.546875 -7.75 25.546875 -6.40625 C 25.546875 -5.070312 25.125 -4.15625 24.28125 -3.65625 C 21.738281 -1.363281 19.769531 0.03125 18.375 0.53125 C 17.59375 0.800781 16.726562 0.925781 15.78125 0.90625 C 14.84375 0.882812 13.910156 0.476562 12.984375 -0.3125 C 12.054688 -1.113281 11.59375 -2.085938 11.59375 -3.234375 C 11.59375 -4.390625 11.894531 -5.695312 12.5 -7.15625 C 13.101562 -8.613281 13.722656 -9.863281 14.359375 -10.90625 C 14.992188 -11.957031 15.773438 -13.171875 16.703125 -14.546875 C 17.628906 -15.929688 18.117188 -16.789062 18.171875 -17.125 L 18.109375 -17.1875 C 17.523438 -17.125 16.070312 -15.960938 13.75 -13.703125 C 11.425781 -11.441406 9.503906 -9.472656 7.984375 -7.796875 C 6.472656 -6.128906 4.664062 -3.894531 2.5625 -1.09375 C 1.976562 -0.332031 1.5 0.046875 1.125 0.046875 C 0.75 0.046875 0.25 -0.0703125 -0.375 -0.3125 C -1.007812 -0.550781 -1.398438 -0.722656 -1.546875 -0.828125 C -1.691406 -0.929688 -1.765625 -1.085938 -1.765625 -1.296875 C -1.765625 -1.515625 -1.703125 -1.78125 -1.578125 -2.09375 C -1.453125 -2.40625 -1.332031 -2.660156 -1.21875 -2.859375 C -1.101562 -3.066406 -0.910156 -3.382812 -0.640625 -3.8125 C -0.367188 -4.25 0.160156 -5.15625 0.953125 -6.53125 C 1.742188 -7.914062 2.957031 -9.976562 4.59375 -12.71875 C 6.226562 -15.457031 7.207031 -17.113281 7.53125 -17.6875 C 8.207031 -18.863281 8.757812 -19.71875 9.1875 -20.25 C 9.988281 -21.269531 11.34375 -21.78125 13.25 -21.78125 C 13.675781 -21.78125 13.890625 -21.507812 13.890625 -20.96875 C 13.890625 -20.132812 13.113281 -18.5625 11.5625 -16.25 L 10.453125 -14.5625 C 13.523438 -17.976562 16.125 -20.140625 18.25 -21.046875 C 19.28125 -21.492188 20.207031 -21.71875 21.03125 -21.71875 C 21.863281 -21.71875 22.523438 -21.492188 23.015625 -21.046875 C 23.503906 -20.609375 23.75 -20.113281 23.75 -19.5625 C 23.75 -19.019531 23.5625 -18.367188 23.1875 -17.609375 C 22.8125 -16.859375 22.429688 -16.179688 22.046875 -15.578125 C 21.671875 -14.984375 21.171875 -14.234375 20.546875 -13.328125 C 19.921875 -12.421875 19.582031 -11.925781 19.53125 -11.84375 C 19.476562 -11.769531 19.335938 -11.554688 19.109375 -11.203125 C 18.890625 -10.859375 18.726562 -10.601562 18.625 -10.4375 C 18.519531 -10.28125 18.34375 -10 18.09375 -9.59375 C 17.84375 -9.195312 17.640625 -8.863281 17.484375 -8.59375 C 17.335938 -8.332031 17.148438 -8.003906 16.921875 -7.609375 C 16.703125 -7.222656 16.523438 -6.882812 16.390625 -6.59375 C 16.253906 -6.3125 16.117188 -6.003906 15.984375 -5.671875 C 15.734375 -5.046875 15.609375 -4.523438 15.609375 -4.109375 Z M 15.609375 -4.109375 "/></g></g></g><g fill="#3b82f6" fill-opacity="1"><g transform="translate(168.287045, 205.876803)"><g><path d="M 20.03125 -19.984375 C 20.03125 -18.804688 19.554688 -17.769531 18.609375 -16.875 C 17.660156 -15.988281 16.578125 -15.546875 15.359375 -15.546875 C 14.972656 -15.546875 14.71875 -15.640625 14.59375 -15.828125 C 14.46875 -16.015625 14.40625 -16.257812 14.40625 -16.5625 C 14.40625 -16.863281 14.441406 -17.160156 14.515625 -17.453125 C 13.867188 -17.234375 13.148438 -16.898438 12.359375 -16.453125 C 11.578125 -16.015625 10.617188 -15.359375 9.484375 -14.484375 C 8.347656 -13.609375 7.78125 -12.957031 7.78125 -12.53125 C 7.78125 -12.382812 7.988281 -12.3125 8.40625 -12.3125 C 8.820312 -12.3125 9.46875 -12.457031 10.34375 -12.75 C 11.21875 -13.050781 11.828125 -13.203125 12.171875 -13.203125 C 12.515625 -13.203125 12.738281 -13.179688 12.84375 -13.140625 C 13.082031 -13.015625 13.332031 -12.742188 13.59375 -12.328125 C 13.863281 -11.910156 14 -11.582031 14 -11.34375 C 14 -11.101562 13.765625 -10.785156 13.296875 -10.390625 C 12.835938 -10.003906 12.3125 -9.707031 11.71875 -9.5 C 11.132812 -9.289062 10.742188 -9.132812 10.546875 -9.03125 C 6.796875 -6.925781 4.921875 -5.484375 4.921875 -4.703125 C 4.921875 -3.316406 6.101562 -2.625 8.46875 -2.625 C 9.976562 -2.625 11.5 -3.101562 13.03125 -4.0625 C 14.332031 -4.882812 15.503906 -5.71875 16.546875 -6.5625 C 17.585938 -7.40625 18.242188 -7.925781 18.515625 -8.125 C 18.796875 -8.320312 19.007812 -8.421875 19.15625 -8.421875 C 19.625 -8.421875 19.859375 -7.898438 19.859375 -6.859375 C 19.859375 -5.828125 19.796875 -5.144531 19.671875 -4.8125 C 19.546875 -4.488281 19.1875 -4.085938 18.59375 -3.609375 C 14.78125 -0.503906 11.175781 1.046875 7.78125 1.046875 C 5.957031 1.046875 4.503906 0.796875 3.421875 0.296875 C 1.421875 -0.609375 0.421875 -2 0.421875 -3.875 C 0.421875 -6.332031 2.125 -8.191406 5.53125 -9.453125 C 4.851562 -9.753906 4.414062 -10.140625 4.21875 -10.609375 C 4.019531 -11.085938 3.921875 -11.847656 3.921875 -12.890625 C 3.921875 -13.929688 4.40625 -15.035156 5.375 -16.203125 C 6.351562 -17.367188 7.546875 -18.328125 8.953125 -19.078125 C 12.085938 -20.765625 14.882812 -21.609375 17.34375 -21.609375 C 17.925781 -21.609375 18.519531 -21.46875 19.125 -21.1875 C 19.726562 -20.90625 20.03125 -20.503906 20.03125 -19.984375 Z M 20.03125 -19.984375 "/></g></g></g><g fill="#3b82f6" fill-opacity="1"><g transform="translate(185.652595, 205.876803)"><g><path d="M 19.03125 -5.921875 C 19.945312 -6.515625 20.539062 -6.921875 20.8125 -7.140625 C 21.082031 -7.367188 21.394531 -7.632812 21.75 -7.9375 C 22.101562 -8.238281 22.394531 -8.390625 22.625 -8.390625 C 22.988281 -8.390625 23.171875 -7.984375 23.171875 -7.171875 C 23.171875 -6.359375 22.769531 -5.484375 21.96875 -4.546875 C 21.175781 -3.617188 20.191406 -2.828125 19.015625 -2.171875 C 17.847656 -1.523438 16.59375 -0.960938 15.25 -0.484375 C 12.601562 0.492188 10.347656 0.984375 8.484375 0.984375 C 6.617188 0.984375 4.9375 0.375 3.4375 -0.84375 C 1.945312 -2.0625 1.203125 -3.65625 1.203125 -5.625 C 1.203125 -7.59375 1.691406 -9.5625 2.671875 -11.53125 C 3.648438 -13.5 4.910156 -15.222656 6.453125 -16.703125 C 7.992188 -18.191406 9.78125 -19.398438 11.8125 -20.328125 C 13.851562 -21.253906 15.875 -21.71875 17.875 -21.71875 C 18.832031 -21.71875 19.691406 -21.441406 20.453125 -20.890625 C 21.222656 -20.335938 21.609375 -19.582031 21.609375 -18.625 C 21.609375 -17.664062 21.128906 -16.507812 20.171875 -15.15625 C 19.222656 -13.8125 18.257812 -13.140625 17.28125 -13.140625 C 16.144531 -13.140625 15.578125 -13.6875 15.578125 -14.78125 C 15.578125 -15.0625 15.84375 -15.566406 16.375 -16.296875 C 16.914062 -17.023438 17.1875 -17.519531 17.1875 -17.78125 C 17.1875 -18.039062 17.085938 -18.171875 16.890625 -18.171875 C 15.910156 -18.171875 14.859375 -17.832031 13.734375 -17.15625 C 12.609375 -16.476562 11.585938 -15.765625 10.671875 -15.015625 C 9.753906 -14.265625 8.882812 -13.425781 8.0625 -12.5 C 6.28125 -10.488281 5.390625 -8.394531 5.390625 -6.21875 C 5.390625 -5.351562 5.671875 -4.601562 6.234375 -3.96875 C 6.796875 -3.332031 7.738281 -3.015625 9.0625 -3.015625 C 10.394531 -3.015625 11.726562 -3.171875 13.0625 -3.484375 C 14.394531 -3.796875 15.492188 -4.132812 16.359375 -4.5 C 17.222656 -4.863281 18.113281 -5.335938 19.03125 -5.921875 Z M 19.03125 -5.921875 "/></g></g></g><g fill="#3b82f6" fill-opacity="1"><g transform="translate(205.609624, 205.876803)"><g><path d="M 20.03125 -34.40625 L 21.140625 -34.140625 C 21.296875 -34.140625 21.4375 -34.0625 21.5625 -33.90625 C 21.6875 -33.75 21.75 -33.597656 21.75 -33.453125 C 21.75 -33.304688 21.5625 -32.921875 21.1875 -32.296875 C 20.8125 -31.671875 20.367188 -30.960938 19.859375 -30.171875 C 19.359375 -29.378906 19.085938 -28.945312 19.046875 -28.875 C 20.441406 -28.988281 21.425781 -29.046875 22 -29.046875 C 22.582031 -29.046875 22.976562 -29.003906 23.1875 -28.921875 C 23.40625 -28.835938 23.648438 -28.613281 23.921875 -28.25 C 24.203125 -27.882812 24.457031 -27.609375 24.6875 -27.421875 C 24.914062 -27.234375 25.03125 -26.953125 25.03125 -26.578125 C 25.03125 -26.210938 24.800781 -25.898438 24.34375 -25.640625 C 23.894531 -25.378906 23.410156 -25.222656 22.890625 -25.171875 C 18.765625 -24.753906 16.488281 -24.539062 16.0625 -24.53125 C 14.613281 -22.320312 12.59375 -18.878906 10 -14.203125 C 7.414062 -9.523438 6.039062 -6.597656 5.875 -5.421875 C 5.800781 -4.890625 5.765625 -4.453125 5.765625 -4.109375 C 5.765625 -3.421875 6.128906 -3.078125 6.859375 -3.078125 C 7.597656 -3.078125 8.410156 -3.351562 9.296875 -3.90625 C 10.191406 -4.46875 11.007812 -5.082031 11.75 -5.75 C 13.75 -7.53125 14.820312 -8.421875 14.96875 -8.421875 C 15.425781 -8.421875 15.65625 -7.617188 15.65625 -6.015625 C 15.65625 -5.140625 15.253906 -4.351562 14.453125 -3.65625 C 12.648438 -2.101562 11.132812 -0.9375 9.90625 -0.15625 C 8.675781 0.625 7.445312 1.015625 6.21875 1.015625 C 5.957031 1.015625 5.710938 0.988281 5.484375 0.9375 C 4.054688 0.664062 3.003906 0.144531 2.328125 -0.625 C 1.660156 -1.40625 1.332031 -2.453125 1.34375 -3.765625 C 1.351562 -5.085938 1.742188 -6.6875 2.515625 -8.5625 C 3.296875 -10.4375 4.273438 -12.4375 5.453125 -14.5625 C 7.378906 -18.019531 9.300781 -21.257812 11.21875 -24.28125 L 10.203125 -24.15625 C 8.140625 -23.925781 6.9375 -23.8125 6.59375 -23.8125 L 6.359375 -23.8125 C 5.835938 -23.8125 5.335938 -23.910156 4.859375 -24.109375 C 4.378906 -24.316406 4.140625 -24.570312 4.140625 -24.875 C 4.140625 -25.175781 4.269531 -25.46875 4.53125 -25.75 C 4.789062 -26.039062 4.945312 -26.265625 5 -26.421875 C 5.125 -26.816406 5.585938 -27.253906 6.390625 -27.734375 C 7.203125 -28.210938 7.8125 -28.460938 8.21875 -28.484375 C 8.632812 -28.515625 9.035156 -28.539062 9.421875 -28.5625 C 9.804688 -28.582031 10.234375 -28.597656 10.703125 -28.609375 C 11.171875 -28.628906 11.53125 -28.648438 11.78125 -28.671875 L 14.1875 -28.78125 C 15.6875 -31.019531 16.710938 -32.457031 17.265625 -33.09375 C 17.828125 -33.738281 18.148438 -34.09375 18.234375 -34.15625 C 18.328125 -34.21875 18.507812 -34.25 18.78125 -34.25 Z M 20.03125 -34.40625 "/></g></g></g><g fill="#3b82f6" fill-opacity="1"><g transform="translate(217.364766, 205.876803)"><g><path d="M 19.046875 -29.34375 C 19.046875 -28.320312 18.570312 -27.296875 17.625 -26.265625 C 16.6875 -25.242188 15.703125 -24.734375 14.671875 -24.734375 C 13.648438 -24.734375 13.140625 -25.269531 13.140625 -26.34375 C 13.140625 -27.414062 13.585938 -28.4375 14.484375 -29.40625 C 15.390625 -30.375 16.382812 -30.859375 17.46875 -30.859375 C 17.945312 -30.859375 18.328125 -30.722656 18.609375 -30.453125 C 18.898438 -30.191406 19.046875 -29.820312 19.046875 -29.34375 Z M 14.71875 -6.015625 C 14.71875 -5.472656 14.664062 -5.085938 14.5625 -4.859375 C 13.6875 -3.078125 12.296875 -1.640625 10.390625 -0.546875 C 8.484375 0.546875 6.828125 1.09375 5.421875 1.09375 C 4.015625 1.09375 2.800781 0.625 1.78125 -0.3125 C 0.769531 -1.257812 0.265625 -2.222656 0.265625 -3.203125 C 0.265625 -4.179688 0.753906 -5.601562 1.734375 -7.46875 C 2.710938 -9.34375 3.691406 -11.070312 4.671875 -12.65625 C 5.648438 -14.25 6.140625 -15.109375 6.140625 -15.234375 C 6.140625 -15.367188 5.957031 -15.632812 5.59375 -16.03125 C 5.226562 -16.425781 5.046875 -16.71875 5.046875 -16.90625 C 5.046875 -17.09375 5.414062 -17.582031 6.15625 -18.375 C 6.894531 -19.164062 7.796875 -19.945312 8.859375 -20.71875 C 9.921875 -21.488281 10.726562 -21.875 11.28125 -21.875 C 11.84375 -21.875 12.347656 -21.625 12.796875 -21.125 C 13.242188 -20.632812 13.46875 -20.179688 13.46875 -19.765625 C 13.46875 -19.359375 11.347656 -15.503906 7.109375 -8.203125 C 7.054688 -8.097656 6.910156 -7.863281 6.671875 -7.5 C 6.429688 -7.132812 6.242188 -6.828125 6.109375 -6.578125 C 5.972656 -6.335938 5.816406 -6.050781 5.640625 -5.71875 C 5.285156 -5.007812 5.109375 -4.410156 5.109375 -3.921875 C 5.109375 -3.316406 5.515625 -3.015625 6.328125 -3.015625 C 7.148438 -3.015625 8 -3.296875 8.875 -3.859375 C 9.757812 -4.421875 10.523438 -5.039062 11.171875 -5.71875 C 12.847656 -7.519531 13.800781 -8.421875 14.03125 -8.421875 C 14.488281 -8.421875 14.71875 -7.617188 14.71875 -6.015625 Z M 14.71875 -6.015625 "/></g></g></g><g fill="#3b82f6" fill-opacity="1"><g transform="translate(228.452007, 205.876803)"><g><path d="M 0.15625 -8.609375 L -0.046875 -9.34375 C -0.046875 -9.488281 0.0195312 -9.609375 0.15625 -9.703125 C 0.300781 -9.804688 0.484375 -10.007812 0.703125 -10.3125 C 0.929688 -10.613281 1.09375 -10.804688 1.1875 -10.890625 C 1.28125 -10.984375 1.421875 -11.113281 1.609375 -11.28125 C 1.796875 -11.457031 1.953125 -11.597656 2.078125 -11.703125 C 2.441406 -12.003906 2.691406 -12.175781 2.828125 -12.21875 C 2.972656 -12.269531 3.222656 -12.347656 3.578125 -12.453125 C 4.679688 -12.804688 5.617188 -13.054688 6.390625 -13.203125 C 10.929688 -20.785156 14.578125 -26.71875 17.328125 -31 C 20.078125 -35.289062 21.644531 -37.660156 22.03125 -38.109375 C 22.414062 -38.566406 23.097656 -38.972656 24.078125 -39.328125 C 25.054688 -39.679688 25.769531 -39.851562 26.21875 -39.84375 C 26.675781 -39.84375 26.90625 -39.644531 26.90625 -39.25 C 26.90625 -39.09375 26.847656 -38.878906 26.734375 -38.609375 C 26.617188 -38.335938 25.644531 -36.757812 23.8125 -33.875 C 17.019531 -23.238281 12.671875 -16.347656 10.765625 -13.203125 L 11.4375 -12.953125 C 15.570312 -13.722656 17.722656 -14.109375 17.890625 -14.109375 C 18.054688 -14.109375 18.484375 -13.988281 19.171875 -13.75 C 19.859375 -13.507812 20.304688 -13.367188 20.515625 -13.328125 C 20.929688 -13.253906 21.140625 -12.921875 21.140625 -12.328125 C 21.140625 -11.734375 20.953125 -11.398438 20.578125 -11.328125 C 20.273438 -11.273438 19.546875 -11.097656 18.390625 -10.796875 C 17.242188 -10.503906 16.320312 -10.28125 15.625 -10.125 C 16.570312 -9 17.046875 -7.804688 17.046875 -6.546875 C 17.046875 -5.285156 16.484375 -3.613281 15.359375 -1.53125 C 14.242188 0.539062 12.8125 2.59375 11.0625 4.625 C 9.3125 6.65625 7.476562 8.566406 5.5625 10.359375 C 3.65625 12.160156 1.816406 13.617188 0.046875 14.734375 C -1.710938 15.847656 -3.015625 16.40625 -3.859375 16.40625 C -4.703125 16.40625 -5.457031 16.175781 -6.125 15.71875 C -6.800781 15.269531 -7.140625 14.597656 -7.140625 13.703125 C -7.140625 12.816406 -6.953125 11.78125 -6.578125 10.59375 C -6.210938 9.40625 -5.816406 8.316406 -5.390625 7.328125 C -4.960938 6.335938 -4.234375 4.921875 -3.203125 3.078125 C -2.097656 1.078125 -0.101562 -2.332031 2.78125 -7.15625 C 2.28125 -7.070312 1.894531 -7.03125 1.625 -7.03125 C 1.363281 -7.03125 1.113281 -7.09375 0.875 -7.21875 C 0.644531 -7.34375 0.488281 -7.5 0.40625 -7.6875 C 0.238281 -8.050781 0.15625 -8.359375 0.15625 -8.609375 Z M 7.671875 2.90625 C 9.003906 1.363281 10.125 -0.253906 11.03125 -1.953125 C 11.9375 -3.660156 12.390625 -5.050781 12.390625 -6.125 C 12.390625 -7.207031 11.867188 -8.160156 10.828125 -8.984375 L 7.859375 -8.3125 C 7.554688 -7.8125 7.085938 -7.019531 6.453125 -5.9375 C 5.816406 -4.863281 5.296875 -3.988281 4.890625 -3.3125 C 4.492188 -2.632812 3.984375 -1.757812 3.359375 -0.6875 C 2.742188 0.375 2.222656 1.269531 1.796875 2 C 1.378906 2.726562 0.914062 3.550781 0.40625 4.46875 C -0.09375 5.382812 -0.503906 6.164062 -0.828125 6.8125 C -1.160156 7.46875 -1.484375 8.117188 -1.796875 8.765625 C -2.378906 10.015625 -2.671875 10.820312 -2.671875 11.1875 C -2.671875 11.5625 -2.570312 11.75 -2.375 11.75 C -2.019531 11.75 -1.285156 11.34375 -0.171875 10.53125 C 0.941406 9.726562 2.195312 8.644531 3.59375 7.28125 C 4.988281 5.914062 6.347656 4.457031 7.671875 2.90625 Z M 7.671875 2.90625 "/></g></g></g><g fill="#3b82f6" fill-opacity="1"><g transform="translate(248.141875, 205.876803)"><g><path d="M 9.75 8.875 C 9.664062 8.957031 9.394531 9.40625 8.9375 10.21875 C 8.476562 11.03125 7.988281 11.847656 7.46875 12.671875 C 6.957031 13.503906 6.320312 14.296875 5.5625 15.046875 C 4.8125 15.796875 4.179688 16.195312 3.671875 16.25 C 3.160156 16.3125 2.835938 16.34375 2.703125 16.34375 C 1.054688 16.34375 0.234375 15.515625 0.234375 13.859375 C 0.234375 11.921875 1.242188 9.648438 3.265625 7.046875 C 4.023438 6.066406 4.984375 5.007812 6.140625 3.875 C 7.296875 2.75 7.925781 2.109375 8.03125 1.953125 C 8.144531 1.804688 9.484375 -0.6875 12.046875 -5.53125 C 10.335938 -3.65625 8.753906 -2.132812 7.296875 -0.96875 C 5.835938 0.195312 4.429688 0.847656 3.078125 0.984375 L 2.890625 0.984375 C 2.191406 0.984375 1.503906 0.753906 0.828125 0.296875 C 0.148438 -0.148438 -0.1875 -0.941406 -0.1875 -2.078125 C -0.1875 -3.773438 0.265625 -5.414062 1.171875 -7 C 1.492188 -7.550781 2.050781 -8.484375 2.84375 -9.796875 C 3.632812 -11.117188 4.367188 -12.394531 5.046875 -13.625 C 5.691406 -14.601562 6.351562 -15.742188 7.03125 -17.046875 C 7.707031 -18.347656 8.222656 -19.28125 8.578125 -19.84375 C 8.929688 -20.40625 9.269531 -20.6875 9.59375 -20.6875 C 9.914062 -20.6875 10.328125 -20.484375 10.828125 -20.078125 C 11.335938 -19.679688 11.59375 -19.207031 11.59375 -18.65625 C 11.59375 -18.101562 10.425781 -15.707031 8.09375 -11.46875 C 5.757812 -7.226562 4.59375 -4.8125 4.59375 -4.21875 C 4.59375 -4.070312 4.664062 -4 4.8125 -4 C 5.289062 -4 6.351562 -4.679688 8 -6.046875 C 9.644531 -7.410156 11.46875 -9.160156 13.46875 -11.296875 C 15.695312 -13.671875 17.441406 -15.835938 18.703125 -17.796875 C 18.859375 -18.046875 18.984375 -18.234375 19.078125 -18.359375 C 19.179688 -18.492188 19.304688 -18.671875 19.453125 -18.890625 C 19.609375 -19.117188 19.734375 -19.296875 19.828125 -19.421875 C 19.929688 -19.546875 20.050781 -19.691406 20.1875 -19.859375 C 20.320312 -20.035156 20.441406 -20.164062 20.546875 -20.25 C 20.648438 -20.34375 20.765625 -20.429688 20.890625 -20.515625 C 21.085938 -20.691406 21.304688 -20.78125 21.546875 -20.78125 C 21.785156 -20.78125 22.148438 -20.726562 22.640625 -20.625 C 23.128906 -20.519531 23.421875 -20.40625 23.515625 -20.28125 C 23.617188 -20.15625 23.722656 -20.039062 23.828125 -19.9375 C 24.003906 -19.738281 24.09375 -19.550781 24.09375 -19.375 C 24.09375 -19.207031 24.019531 -18.984375 23.875 -18.703125 C 23.738281 -18.429688 22.914062 -17.023438 21.40625 -14.484375 C 16.945312 -6.960938 13.878906 -1.472656 12.203125 1.984375 C 14.910156 -0.296875 18.722656 -3.675781 23.640625 -8.15625 C 23.835938 -8.3125 24.035156 -8.390625 24.234375 -8.390625 C 24.785156 -8.390625 25.0625 -7.539062 25.0625 -5.84375 C 25.0625 -5.351562 24.972656 -5.023438 24.796875 -4.859375 C 19.472656 -0.765625 14.457031 3.8125 9.75 8.875 Z M 9.75 8.875 "/></g></g></g></svg>