<svg xmlns="http://www.w3.org/2000/svg" xmlns:xlink="http://www.w3.org/1999/xlink" width="500" zoomAndPan="magnify" viewBox="0 0 375 374.999991" height="500" preserveAspectRatio="xMidYMid meet" version="1.0"><defs><g/><clipPath id="ccb65c37fd"><path d="M 118.621094 143.523438 L 201.871094 143.523438 L 201.871094 232.023438 L 118.621094 232.023438 Z M 118.621094 143.523438 " clip-rule="nonzero"/></clipPath></defs><g fill="#000000" fill-opacity="1"><g transform="translate(148.474785, 225.752563)"><g><path d="M 46.441406 -106.351562 C 80.191406 -115.796875 96.753906 -78.640625 96.753906 -78.640625 L 96.753906 -94.742188 C 96.753906 -94.742188 80.65625 -116.878906 46.132812 -107.4375 C 16.875 -99.695312 -0.308594 -69.355469 7.277344 -39.941406 C 15.636719 -10.527344 45.050781 7.277344 74.617188 -1.238281 C 85.761719 -4.179688 95.671875 -10.527344 102.484375 -19.042969 L 102.484375 -38.703125 C 100.316406 -21.984375 91.492188 -6.65625 74.308594 -2.011719 C 47.992188 5.109375 25.699219 -19.351562 19.195312 -43.035156 C 13.3125 -66.566406 19.96875 -99.078125 46.441406 -106.351562 Z M 46.441406 -106.351562 "/></g></g></g><g clip-path="url(#ccb65c37fd)"><path fill="#000000" d="M 184.726562 226.070312 C 182.148438 227.570312 179.40625 228.820312 176.523438 229.78125 C 172.15625 231.238281 167.488281 232.023438 162.652344 232.023438 C 150.496094 232.023438 139.488281 227.074219 131.519531 219.066406 C 123.550781 211.058594 118.625 199.992188 118.625 187.777344 C 118.625 175.679688 123.523438 164.714844 131.425781 156.726562 C 139.355469 148.703125 150.3125 143.679688 162.371094 143.53125 C 162.539062 143.527344 172.042969 143.53125 173.769531 143.53125 L 173.769531 143.527344 L 174.035156 143.527344 L 174.035156 145.058594 L 173.769531 145.058594 L 173.769531 145.054688 C 172.042969 145.054688 162.554688 145.054688 162.382812 145.054688 C 150.746094 145.203125 140.160156 150.050781 132.503906 157.800781 C 124.878906 165.511719 120.148438 176.097656 120.148438 187.777344 C 120.148438 199.570312 124.90625 210.253906 132.601562 217.984375 C 140.292969 225.714844 150.917969 230.496094 162.65625 230.496094 C 167.34375 230.496094 171.847656 229.734375 176.050781 228.335938 C 180.40625 226.882812 184.457031 224.734375 188.070312 222.023438 L 188.097656 222.066406 C 191.25 219.644531 193.929688 216.632812 195.972656 213.199219 C 198.75 208.523438 200.347656 203.050781 200.347656 197.195312 C 200.347656 188.558594 196.863281 180.742188 191.238281 175.082031 C 185.605469 169.421875 177.828125 165.925781 169.234375 165.925781 C 160.640625 165.925781 152.863281 169.425781 147.230469 175.082031 C 141.816406 180.523438 138.386719 187.96875 138.132812 196.210938 C 139.605469 193.9375 142.160156 192.433594 145.058594 192.433594 C 149.621094 192.433594 153.316406 196.152344 153.316406 200.734375 C 153.316406 205.320312 149.621094 209.035156 145.058594 209.035156 C 140.558594 209.035156 136.902344 205.421875 136.804688 200.921875 C 136.746094 200.386719 136.695312 199.859375 136.664062 199.332031 C 136.617188 198.609375 136.589844 197.894531 136.589844 197.195312 C 136.589844 188.136719 140.242188 179.9375 146.152344 174 C 152.058594 168.0625 160.21875 164.394531 169.230469 164.394531 C 178.246094 164.394531 186.402344 168.0625 192.308594 174 C 198.21875 179.9375 201.871094 188.140625 201.871094 197.195312 C 201.871094 203.328125 200.191406 209.070312 197.273438 213.980469 C 194.257812 219.0625 189.914062 223.253906 184.722656 226.074219 Z M 184.726562 226.070312 " fill-opacity="1" fill-rule="nonzero"/></g></svg>