<svg xmlns="http://www.w3.org/2000/svg" viewBox="0 0 64 64"><g data-name="Birthday Day"><path d="M58 10h-1V8a4 4 0 0 0-8 0v2h-6V8a4 4 0 0 0-8 0v2h-6V8a4 4 0 0 0-8 0v2h-6V8a4 4 0 0 0-8 0v2H6a6.006 6.006 0 0 0-6 6v38a6.006 6.006 0 0 0 6 6h52a6.006 6.006 0 0 0 6-6V16a6.006 6.006 0 0 0-6-6zm-7-2a2 2 0 0 1 4 0v6a2 2 0 0 1-4 0zM37 8a2 2 0 0 1 4 0v6a2 2 0 0 1-4 0zM23 8a2 2 0 0 1 4 0v6a2 2 0 0 1-4 0zM9 8a2 2 0 0 1 4 0v6a2 2 0 0 1-4 0zm-3 4h1v2a4 4 0 0 0 8 0v-2h6v2a4 4 0 0 0 8 0v-2h6v2a4 4 0 0 0 8 0v-2h6v2a4 4 0 0 0 8 0v-2h1a4 4 0 0 1 4 4v5H2v-5a4 4 0 0 1 4-4zm52 46H6a4 4 0 0 1-4-4V23h60v31a4 4 0 0 1-4 4z" style="fill:#202023"/><path d="M49 54h-3v-9a1 1 0 0 0-1-1h-2v-9a1 1 0 0 0-1-1h-9v-1.184A3 3 0 0 0 35 30c0-1.278-1.522-3.621-2.177-4.568a1.038 1.038 0 0 0-1.646 0C30.522 26.379 29 28.722 29 30a3 3 0 0 0 2 2.816V34h-9a1 1 0 0 0-1 1v9h-2a1 1 0 0 0-1 1v9h-3a1 1 0 0 0 0 2h34a1 1 0 0 0 0-2zM32 27.854A7.462 7.462 0 0 1 33 30a1 1 0 0 1-2 0 7.457 7.457 0 0 1 1-2.146zM41 36v3.811a2.722 2.722 0 0 1-1.426-.624 4.66 4.66 0 0 0-5.839 0 2.664 2.664 0 0 1-3.49 0 4.644 4.644 0 0 0-5.828 0A2.73 2.73 0 0 1 23 39.81V36zm-18 5.823a4.542 4.542 0 0 0 2.584-1.012 2.666 2.666 0 0 1 3.491 0 4.644 4.644 0 0 0 5.828 0 2.582 2.582 0 0 1 1.757-.653 2.54 2.54 0 0 1 1.746.651A4.541 4.541 0 0 0 41 41.824V44H23zM44 46v3.663a2.781 2.781 0 0 1-1.34.3 3.057 3.057 0 0 1-2.086-.772 5.172 5.172 0 0 0-6.5 0 3.193 3.193 0 0 1-4.161 0 5.169 5.169 0 0 0-6.5 0 3.057 3.057 0 0 1-2.086.772 2.755 2.755 0 0 1-1.33-.3V46zm-24 8v-2.221a5.125 5.125 0 0 0 4.585-.969 3.191 3.191 0 0 1 4.161 0 5.173 5.173 0 0 0 6.5 0 3.193 3.193 0 0 1 4.161 0 5.009 5.009 0 0 0 3.255 1.15A5.079 5.079 0 0 0 44 51.779V54z" style="fill:#202023"/></g></svg>